<svg width="267" height="256" viewBox="0 0 267 256" fill="none" xmlns="http://www.w3.org/2000/svg">
<path d="M221.56 100.85L141.61 25.38L141.45 25.23C137.776 21.8675 132.976 20.0026 127.995 20.0026C123.014 20.0026 118.214 21.8675 114.54 25.23L114.37 25.38L34.44 100.85C32.413 102.725 30.7948 104.999 29.6867 107.528C28.5786 110.058 28.0044 112.789 28 115.55V208C28 213.304 30.1071 218.391 33.8579 222.142C37.6086 225.893 42.6957 228 48 228H96C101.304 228 106.391 225.893 110.142 222.142C113.893 218.391 116 213.304 116 208V164H140V208C140 213.304 142.107 218.391 145.858 222.142C149.609 225.893 154.696 228 160 228H208C213.304 228 218.391 225.893 222.142 222.142C225.893 218.391 228 213.304 228 208V115.55C227.996 112.789 227.421 110.058 226.313 107.528C225.205 104.999 223.587 102.725 221.56 100.85ZM204 204H164V160C164 157.374 163.483 154.773 162.478 152.346C161.472 149.92 159.999 147.715 158.142 145.858C156.285 144.001 154.08 142.528 151.654 141.522C149.227 140.517 146.626 140 144 140H112C106.696 140 101.609 142.107 97.8579 145.858C94.1071 149.609 92 154.696 92 160V204H52V117.28L128 45.53L204 117.28V204Z" fill="white"/>
</svg>
