<svg width="87" height="165" viewBox="0 0 87 165" fill="none" xmlns="http://www.w3.org/2000/svg">
<path d="M2.31833 150.413C1.57779 151.197 0.998855 152.119 0.614578 153.126C0.2303 154.134 0.0482026 155.207 0.0786911 156.285C0.10918 157.363 0.351654 158.424 0.792267 159.408C1.23288 160.392 1.863 161.28 2.64666 162.02C3.43032 162.761 4.35217 163.34 5.35957 163.724C6.36696 164.108 7.44018 164.29 8.51795 164.26C9.59572 164.229 10.6569 163.987 11.641 163.546C12.6251 163.106 13.5127 162.475 14.2532 161.692L84.0241 87.8168C85.4649 86.2927 86.2678 84.2749 86.2678 82.1776C86.2678 80.0803 85.4649 78.0625 84.0241 76.5385L14.2532 2.65529C13.5176 1.85448 12.6301 1.20781 11.6425 0.752865C10.6548 0.297922 9.58655 0.0437694 8.49981 0.00515875C7.41308 -0.0334519 6.3295 0.144263 5.31202 0.527965C4.29454 0.911667 3.36344 1.49371 2.57281 2.24029C1.78218 2.98688 1.14777 3.88312 0.70644 4.87696C0.265109 5.8708 0.0256527 6.94243 0.00197598 8.02959C-0.0217007 9.11676 0.170873 10.1978 0.568517 11.2099C0.966162 12.222 1.56095 13.145 2.31833 13.9253L66.7702 82.1776L2.31833 150.413Z" fill="#BABABA"/>
</svg>
