<svg width="87" height="165" viewBox="0 0 87 165" fill="none" xmlns="http://www.w3.org/2000/svg">
<path d="M84.4674 14.2641C85.208 13.4805 85.7869 12.5586 86.1712 11.5512C86.5555 10.5438 86.7376 9.47061 86.7071 8.39284C86.6766 7.31507 86.4341 6.25385 85.9935 5.26979C85.5529 4.28573 84.9228 3.39809 84.1391 2.65755C83.3554 1.91701 82.4336 1.33807 81.4262 0.953793C80.4188 0.569516 79.3456 0.387422 78.2678 0.41791C77.19 0.448399 76.1288 0.690872 75.1448 1.13148C74.1607 1.5721 73.2731 2.20222 72.5325 2.98588L2.76169 76.8609C1.32083 78.3849 0.518005 80.4027 0.518005 82.5C0.518005 84.5973 1.32083 86.6151 2.76169 88.1391L72.5325 162.022C73.2682 162.823 74.1556 163.47 75.1433 163.925C76.131 164.38 77.1992 164.634 78.286 164.672C79.3727 164.711 80.4563 164.533 81.4737 164.15C82.4912 163.766 83.4223 163.184 84.213 162.437C85.0036 161.691 85.638 160.795 86.0793 159.801C86.5207 158.807 86.7601 157.735 86.7838 156.648C86.8075 155.561 86.6149 154.48 86.2172 153.468C85.8196 152.456 85.2248 151.533 84.4674 150.752L20.0156 82.5L84.4674 14.2641Z" fill="#BABABA"/>
</svg>
