<svg width="441" height="441" viewBox="0 0 441 441" fill="none" xmlns="http://www.w3.org/2000/svg">
<g clip-path="url(#clip0_439_9)">
<path d="M123.113 220.5C123.181 240.865 125.732 261.145 130.708 280.893H210.088V164.763H129.605C125.37 183.042 123.193 201.737 123.113 220.5Z" fill="white"/>
<path d="M230.912 164.763V280.893H310.292C315.475 261.171 318.231 240.89 318.5 220.5C318.46 201.742 316.323 183.046 312.13 164.763H230.912Z" fill="white"/>
<path d="M220.5 24.5C181.735 24.5 143.84 35.9952 111.608 57.532C79.3762 79.0687 54.2544 109.68 39.4196 145.494C24.5849 181.308 20.7034 220.717 28.2661 258.738C35.8288 296.758 54.496 331.682 81.9071 359.093C109.318 386.504 144.242 405.171 182.262 412.734C220.283 420.297 259.692 416.415 295.506 401.58C331.32 386.746 361.931 361.624 383.468 329.392C405.005 297.16 416.5 259.265 416.5 220.5C416.5 168.518 395.85 118.664 359.093 81.9071C322.336 45.1499 272.482 24.5 220.5 24.5ZM370.195 302.697H325.85C317.465 328.947 305.069 353.74 289.1 376.197C277.316 381.333 264.987 385.114 252.35 387.467C274.982 362.876 292.4 333.957 303.555 302.453H231.035V390.04H210.333V302.697H137.445C148.585 334.245 166.004 363.207 188.65 387.835C176.273 385.507 164.194 381.809 152.635 376.81C136.61 354.165 124.211 329.161 115.885 302.697H70.805C66.8917 295.558 63.4938 288.149 60.6375 280.525H109.638C105.046 260.843 102.663 240.71 102.533 220.5C102.539 201.766 104.51 183.085 108.413 164.762H58.31C60.8862 157.161 63.9973 149.752 67.62 142.59H114.293C123.05 113.423 136.631 85.9295 154.473 61.25C165.786 56.5621 177.574 53.112 189.63 50.96C165.261 77.1143 146.869 108.254 135.73 142.222H210.333V49H231.035V142.59H305.638C294.518 108.676 276.17 77.5804 251.86 51.45C263.897 53.4467 275.684 56.7323 287.018 61.25C304.755 85.7512 318.292 113.033 327.075 141.978H373.258C376.88 149.14 379.991 156.549 382.568 164.15H332.833C336.819 182.668 338.831 201.557 338.835 220.5C338.772 240.829 336.43 261.086 331.853 280.893H380.853C377.822 288.404 374.26 295.691 370.195 302.697Z" fill="white"/>
</g>
<defs>
<clipPath id="clip0_439_9">
<rect width="441" height="441" fill="white"/>
</clipPath>
</defs>
</svg>
